<?xml version="1.0" encoding="UTF-8"?>
<svg id="Camada_1" data-name="Camada 1" xmlns="http://www.w3.org/2000/svg" version="1.1" xmlns:xlink="http://www.w3.org/1999/xlink" viewBox="0 0 226.77 226.77">
  <defs>
    <style>
      .cls-1 {
        fill-rule: evenodd;
      }

      .cls-1, .cls-2 {
        fill: none;
        stroke: #005a87;
        stroke-miterlimit: 10;
        stroke-width: .5px;
      }

      .cls-3 {
        clip-path: url(#clippath);
      }
    </style>
    <clipPath id="clippath">
      <path id="SVGID" class="cls-2" d="M119.02,57.83c10.38.98,19.99,4.63,28.14,10.23h-28.02c-.04-3.28-.08-6.94-.12-10.23ZM107.43,68.06h-28.02c8.15-5.6,17.76-9.25,28.14-10.23-.05,3.3-.1,6.95-.12,10.23h0ZM152.23,71.95c2.95,2.54,5.66,5.36,8.08,8.41h-41.07c-.02-2.8-.04-5.6-.07-8.41h33.05ZM107.32,80.36h-41.06c2.41-3.05,5.12-5.87,8.08-8.41h33.05c-.03,2.81-.05,5.61-.07,8.41h0ZM164.7,86.72c1.37,2.29,2.6,4.69,3.67,7.18h-49.03l-.04-7.18h45.41ZM107.23,93.9h-49.02c1.06-2.49,2.29-4.88,3.67-7.18h45.4l-.04,7.18ZM170.28,99.02c.76,2.34,1.42,5.64,1.88,8.09l-46.3-.17c-3.23-.26-6.33-4.76-6.49-7.92h50.9ZM100.5,106.85l-46.3.26c.47-2.45,1.33-5.75,2.08-8.09h50.9c-.15,3.15-2.02,5.89-4.63,7.18l-2.06.65ZM172.58,125.89c-.23,1.67-.53,3.31-.9,4.93h-52.3c.02-.7-.03-4.3.07-4.93h53.14ZM107.19,130.81h-52.3c-.37-1.62-.67-3.26-.9-4.93h53.15c.08.6.04,4.25.06,4.93ZM168.92,139.65c-.4,1.01-.83,2.01-1.29,2.99h-48.32l.02-2.99h49.59ZM107.27,142.65h-48.33c-.45-.98-.89-1.98-1.29-2.99h49.6l.02,2.99ZM161.56,152.9c-.67.92-1.37,1.82-2.09,2.69h-40.3l.03-2.69h42.36ZM107.4,155.59h-40.3c-.73-.87-1.42-1.77-2.09-2.69h42.35l.04,2.69ZM148.57,165.84c-.99.73-2,1.43-3.05,2.09h-26.52l.04-2.09h29.53ZM107.56,167.93h-26.52c-1.04-.66-2.05-1.36-3.05-2.09h29.54l.03,2.09ZM107.56,167.93"/>
    </clipPath>
  </defs>
  <g>
    <path class="cls-1" d="M99.27,118.54c-11.87-.01-23.75-.1-35.62-.35-11.86-.26-23.75-.73-35.64-1.28-4.36-.2-7.95,2.68-7.73,6.46.59,10.33,1.62,20.68,3.35,30.95,1.74,10.36,4.23,20.66,7.03,30.98,1.04,3.8,5.08,8.25,8.88,9.71,10.3,3.93,20.61,7.37,30.99,9.76,10.27,2.35,20.64,3.69,30.96,4.53,3.78.31,6.81-3.44,6.71-8-.28-12.42-.53-24.82-.7-37.24-.17-12.42-.29-24.84-.32-37.26,0-4.55-3.56-8.25-7.91-8.25h0Z"/>
    <path class="cls-1" d="M101.49,16.2c-10.32.91-20.68,2.22-30.96,4.33-10.35,2.13-20.68,5.04-30.99,8.29-3.79,1.19-7.89,5.41-8.95,9.22-2.86,10.3-5.35,20.59-7.07,30.95-1.71,10.29-2.65,20.64-3.26,30.97-.22,3.78,3.37,6.93,7.73,6.99,11.89.14,23.78.19,35.66.19s23.75-.07,35.59-.15c4.36-.03,7.93-3.8,7.96-8.34.08-12.42.14-24.85.3-37.26.16-12.42.39-24.83.66-37.24.1-4.56-2.89-8.27-6.67-7.94h0Z"/>
    <path class="cls-1" d="M125.07,16.2c10.32.91,20.68,2.22,30.97,4.33,10.35,2.13,20.67,5.04,30.98,8.29,3.79,1.19,7.89,5.41,8.96,9.22,2.86,10.3,5.34,20.59,7.06,30.95,1.71,10.29,2.66,20.64,3.26,30.97.22,3.78-3.37,6.93-7.73,6.99-11.89.14-23.78.19-35.65.19s-23.75-.07-35.6-.15c-4.36-.03-7.92-3.8-7.96-8.34-.08-12.42-.14-24.85-.3-37.26-.16-12.42-.39-24.83-.66-37.24-.09-4.56,2.89-8.27,6.67-7.94h0Z"/>
    <path class="cls-1" d="M127.3,118.54c11.88-.01,23.75-.1,35.62-.35,11.85-.26,23.75-.73,35.64-1.28,4.35-.2,7.94,2.68,7.72,6.46-.59,10.33-1.62,20.68-3.35,30.95-1.74,10.36-4.22,20.66-7.03,30.98-1.03,3.8-5.08,8.25-8.88,9.71-10.29,3.93-20.6,7.37-30.98,9.76-10.27,2.35-20.65,3.69-30.97,4.53-3.78.31-6.81-3.44-6.71-8,.28-12.42.53-24.82.7-37.24.17-12.42.29-24.84.32-37.26,0-4.55,3.56-8.25,7.91-8.25h0Z"/>
  </g>
  <g>
    <g class="cls-3">
      <rect class="cls-2" x="53.16" y="57.47" width="120.43" height="110.58"/>
    </g>
    <path id="SVGID-2" data-name="SVGID" class="cls-2" d="M119.02,57.83c10.38.98,19.99,4.63,28.14,10.23h-28.02c-.04-3.28-.08-6.94-.12-10.23ZM107.43,68.06h-28.02c8.15-5.6,17.76-9.25,28.14-10.23-.05,3.3-.1,6.95-.12,10.23h0ZM152.23,71.95c2.95,2.54,5.66,5.36,8.08,8.41h-41.07c-.02-2.8-.04-5.6-.07-8.41h33.05ZM107.32,80.36h-41.06c2.41-3.05,5.12-5.87,8.08-8.41h33.05c-.03,2.81-.05,5.61-.07,8.41h0ZM164.7,86.72c1.37,2.29,2.6,4.69,3.67,7.18h-49.03l-.04-7.18h45.41ZM107.23,93.9h-49.02c1.06-2.49,2.29-4.88,3.67-7.18h45.4l-.04,7.18ZM170.28,99.02c.76,2.34,1.42,5.64,1.88,8.09l-46.3-.17c-3.23-.26-6.33-4.76-6.49-7.92h50.9ZM100.5,106.85l-46.3.26c.47-2.45,1.33-5.75,2.08-8.09h50.9c-.15,3.15-2.02,5.89-4.63,7.18l-2.06.65ZM172.58,125.89c-.23,1.67-.53,3.31-.9,4.93h-52.3c.02-.7-.03-4.3.07-4.93h53.14ZM107.19,130.81h-52.3c-.37-1.62-.67-3.26-.9-4.93h53.15c.08.6.04,4.25.06,4.93ZM168.92,139.65c-.4,1.01-.83,2.01-1.29,2.99h-48.32l.02-2.99h49.59ZM107.27,142.65h-48.33c-.45-.98-.89-1.98-1.29-2.99h49.6l.02,2.99ZM161.56,152.9c-.67.92-1.37,1.82-2.09,2.69h-40.3l.03-2.69h42.36ZM107.4,155.59h-40.3c-.73-.87-1.42-1.77-2.09-2.69h42.35l.04,2.69ZM148.57,165.84c-.99.73-2,1.43-3.05,2.09h-26.52l.04-2.09h29.53ZM107.56,167.93h-26.52c-1.04-.66-2.05-1.36-3.05-2.09h29.54l.03,2.09ZM107.56,167.93"/>
  </g>
</svg>