<?xml version="1.0" encoding="UTF-8"?>
<!DOCTYPE svg PUBLIC "-//W3C//DTD SVG 1.1//EN" "http://www.w3.org/Graphics/SVG/1.1/DTD/svg11.dtd">
<!-- Creator: CorelDRAW -->
<svg xmlns="http://www.w3.org/2000/svg" xml:space="preserve" width="1263.08mm" height="1423.19mm" version="1.1" style="shape-rendering:geometricPrecision; text-rendering:geometricPrecision; image-rendering:optimizeQuality; fill-rule:evenodd; clip-rule:evenodd"
viewBox="0 0 21305.2 24005.85"
 xmlns:xlink="http://www.w3.org/1999/xlink"
 xmlns:xodm="http://www.corel.com/coreldraw/odm/2003">
 <defs>
  <style type="text/css">
   <![CDATA[
    .fil0 {fill:#22C55E}
   ]]>
  </style>
 </defs>
 <g id="Camada_x0020_1">
  <metadata id="CorelCorpID_0Corel-Layer"/>
  <g id="_1927650220080">
   <path class="fil0" d="M10352.53 11252.74l0 75.01 -150.05 0 0 -150.05 75.01 0 0 -150.03 75.04 0 0 -225.07 75.01 0 0 -150.02 75.01 0 0 -225.07 75.01 0 0 -150.02 75.01 0 0 -225.07 75.04 0 0 -150.03 150.02 0 0 75.01 75.01 0 0 75.01 75.01 0 0 75.04 75.04 0 0 75.01 75.01 0 0 75.01 75.01 0 0 75.01 75.01 0 0 75.01 75.01 0 0 75.04 75.04 0 0 75.01 75.01 0 0 75.01 75.01 0 0 150.02 -225.07 0 0 75.04 -150.02 0 0 75.01 -225.07 0 0 75.01 -225.04 0 0 75.01 -75.01 0 0 75.01 -225.07 0 0 75.04 -150.02 0zm-5101.25 -2700.68l-75.01 0 0 75.04 -75.01 0 0 75.01 -75.01 0 0 75.01 -75.04 0 0 75.01 -75.01 0 0 75.01 -75.01 0 0 75.04 -75.01 0 0 75.01 -75.01 0 0 75.01 -75.04 0 0 75.01 -75.01 0 0 450.1 75.01 0 0 75.04 300.08 0 0 -75.04 75.01 0 0 -75.01 75.04 0 0 -75.01 75.01 0 0 -75.01 75.01 0 0 -75.01 75.01 0 0 -75.04 75.01 0 0 -75.01 75.04 0 0 -75.01 75.01 0 0 -75.01 75.01 0 0 -75.01 75.01 0 0 -75.04 75.01 0 0 -75.01 150.05 0 0 75.01 75.01 0 0 75.04 75.01 0 0 75.01 75.01 0 0 75.01 75.04 0 0 75.01 75.01 0 0 75.01 75.01 0 0 75.04 75.01 0 0 75.01 75.01 0 0 75.01 -75.01 0 0 75.01 -75.01 0 0 75.01 -75.01 0 0 75.04 -75.01 0 0 75.01 -75.04 0 0 75.01 -75.01 0 0 75.01 -75.01 0 0 75.01 -75.01 0 0 75.04 -75.01 0 0 75.01 -75.04 0 0 75.01 -75.01 0 0 75.01 -75.01 0 0 375.09 75.01 0 0 75.01 375.09 0 0 -75.01 75.01 0 0 -75.01 75.04 0 0 -75.01 75.01 0 0 -75.01 75.01 0 0 -75.04 75.01 0 0 -75.01 75.01 0 0 -75.01 75.04 0 0 -75.01 75.01 0 0 -75.01 75.01 0 0 -75.04 75.01 0 0 -75.01 75.01 0 0 -75.01 75.04 0 0 75.01 75.01 0 0 75.01 75.01 0 0 75.04 75.01 0 0 75.01 75.01 0 0 75.01 75.04 0 0 75.01 75.01 0 0 75.01 75.01 0 0 75.04 75.01 0 0 150.03 -150.03 0 0 150.02 -150.05 0 0 150.05 -150.02 0 0 75.01 -75.01 0 0 150.03 -150.05 0 0 150.05 -150.02 0 0 150.02 -75.01 0 0 300.08 75.01 0 0 75.01 75.01 0 0 75.01 225.07 0 0 -75.01 150.02 0 0 -75.01 75.01 0 0 -75.01 75.04 0 0 -75.01 75.01 0 0 -75.04 75.01 0 0 -75.01 75.01 0 0 -75.01 75.01 0 0 -75.01 75.04 0 0 -75.01 75.01 0 0 -75.04 75.01 0 0 -75.01 75.01 0 0 -75.01 150.03 0 0 75.01 75.04 0 0 75.01 75.01 0 0 75.04 75.01 0 0 75.01 75.01 0 0 75.01 75.01 0 0 75.01 75.04 0 0 75.01 75.01 0 0 150.05 -75.01 0 0 75.01 -75.04 0 0 75.01 -75.01 0 0 75.01 -75.01 0 0 75.04 -75.01 0 0 75.01 -75.01 0 0 75.01 -75.04 0 0 75.01 -75.01 0 0 75.04 -75.01 0 0 75.01 -75.01 0 0 75.01 -75.01 0 0 150.02 -75.01 0 0 225.07 75.01 0 0 75.01 75.01 0 0 75.01 300.08 0 0 -75.01 75.01 0 0 -75.01 75.01 0 0 -75.01 75.01 0 0 -75.01 75.01 0 0 -75.04 75.04 0 0 -75.01 75.01 0 0 -75.01 75.01 0 0 -75.01 75.01 0 0 -75.01 75.01 0 0 -75.04 75.04 0 0 -75.01 75.01 0 0 -75.01 150.03 0 0 75.01 75.01 0 0 75.01 75.04 0 0 75.04 75.01 0 0 75.01 75.01 0 0 75.01 75.01 0 0 75.01 75.01 0 0 75.01 75.04 0 0 225.07 -75.04 0 0 75.01 -75.01 0 0 75.01 -75.01 0 0 75.04 -75.01 0 0 75.01 -75.01 0 0 75.01 -75.04 0 0 75.01 -75.01 0 0 75.01 -75.01 0 0 75.04 -75.01 0 0 75.01 -75.01 0 0 75.01 -75.04 0 0 75.01 -75.01 0 0 225.07 75.01 0 0 75.01 75.04 0 0 75.01 300.05 0 0 -75.01 150.05 0 0 -75.01 75.01 0 0 -75.01 75.01 0 0 -75.04 75.01 0 0 -75.01 75.04 0 0 -75.01 75.01 0 0 -75.01 75.01 0 0 -75.01 75.01 0 0 -75.04 75.01 0 0 -75.01 75.04 0 0 -75.01 225.04 0 0 75.01 75.01 0 0 75.01 75.04 0 0 75.04 75.01 0 0 75.01 75.01 0 0 75.01 75.01 0 0 75.01 75.01 0 0 75.01 75.04 0 0 75.04 -75.04 0 0 75.01 -75.01 0 0 75.01 -75.01 0 0 75.01 -75.01 0 0 75.01 -75.01 0 0 75.04 -75.04 0 0 75.01 -75.01 0 0 75.01 -75.01 0 0 75.01 -75.01 0 0 75.01 -75.01 0 0 75.04 -75.04 0 0 75.01 -75.01 0 0 375.09 75.01 0 0 75.01 375.09 0 0 -75.01 75.04 0 0 -75.01 75.01 0 0 -75.04 75.01 0 0 -75.01 75.01 0 0 -75.01 75.01 0 0 -75.01 75.04 0 0 -75.01 75.01 0 0 -75.04 75.01 0 0 -75.01 75.01 0 0 -75.01 75.01 0 0 -75.01 75.04 0 0 -75.01 75.01 0 0 75.01 75.01 0 0 75.01 75.01 0 0 75.01 75.01 0 0 75.01 75.04 0 0 75.04 75.01 0 0 75.01 75.01 0 0 75.01 75.01 0 0 75.01 75.01 0 0 150.05 -75.01 0 0 75.01 -75.01 0 0 75.01 -75.01 0 0 75.01 -75.01 0 0 75.01 -75.04 0 0 75.04 -75.01 0 0 75.01 -75.01 0 0 75.01 -75.01 0 0 75.01 -75.01 0 0 75.01 -75.04 0 0 75.04 -75.01 0 0 75.01 -75.01 0 0 300.08 75.01 0 0 75.01 75.01 0 0 75.01 300.08 0 0 -75.01 75.01 0 0 -75.01 75.04 0 0 -75.04 75.01 0 0 -75.01 75.01 0 0 -75.01 75.01 0 0 -75.01 75.01 0 0 -75.01 75.04 0 0 -75.04 75.01 0 0 -75.01 75.01 0 0 -75.01 75.01 0 0 -75.01 75.01 0 0 -75.01 150.05 0 0 75.01 75.01 0 0 75.01 75.01 0 0 75.01 75.01 0 0 75.01 75.04 0 0 75.04 75.01 0 0 75.01 75.01 0 0 75.01 75.01 0 0 150.03 -75.01 0 0 75.04 -75.01 0 0 75.01 -75.01 0 0 75.01 -75.04 0 0 75.01 -75.01 0 0 75.01 -75.01 0 0 75.04 -75.01 0 0 75.01 -75.01 0 0 75.01 -75.04 0 0 75.01 -75.01 0 0 75.01 -75.01 0 0 75.04 -75.01 0 0 300.05 75.01 0 0 75.04 75.01 0 0 75.01 300.08 0 0 -75.01 75.01 0 0 -75.04 75.01 0 0 -75.01 75.04 0 0 -75.01 75.01 0 0 -75.01 75.01 0 0 -75.01 75.01 0 0 -75.04 75.01 0 0 -75.01 75.04 0 0 -75.01 75.01 0 0 -75.01 75.01 0 0 -75.01 75.01 0 0 -75.04 150.05 0 0 75.04 75.01 0 0 75.01 75.01 0 0 75.01 75.01 0 0 75.01 75.01 0 0 75.01 75.04 0 0 75.04 75.01 0 0 75.01 75.01 0 0 75.01 75.01 0 0 75.01 -75.01 0 0 75.01 -75.01 0 0 75.04 -75.01 0 0 75.01 -75.04 0 0 75.01 -75.01 0 0 75.01 -75.01 0 0 75.01 -75.01 0 0 75.04 -75.01 0 0 75.01 -75.04 0 0 75.01 -75.01 0 0 75.01 -75.01 0 0 75.01 -75.01 0 0 375.09 75.01 0 0 75.04 375.09 0 0 -75.04 75.01 0 0 -75.01 75.01 0 0 -75.01 75.04 0 0 -75.01 75.01 0 0 -75.01 75.01 0 0 -75.04 75.01 0 0 -75.01 75.01 0 0 -75.01 75.04 0 0 -75.01 75.01 0 0 -75.01 75.01 0 0 -75.04 75.01 0 0 -75.01 75.01 0 0 75.01 75.04 0 0 75.04 75.01 0 0 75.01 75.01 0 0 75.01 75.01 0 0 75.01 75.01 0 0 75.01 75.04 0 0 75.04 75.01 0 0 75.01 75.01 0 0 75.01 -75.01 0 0 75.01 -75.01 0 0 75.01 -75.04 0 0 75.04 -75.01 0 0 75.01 -75.01 0 0 75.01 -75.01 0 0 75.01 -75.01 0 0 75.01 -75.04 0 0 75.04 -75.01 0 0 75.01 -75.01 0 0 75.01 -75.01 0 0 75.01 -75.01 0 0 375.09 75.01 0 0 75.01 375.09 0 0 -75.01 75.01 0 0 -75.01 75.01 0 0 -75.01 75.01 0 0 -75.01 75.04 0 0 -75.04 75.01 0 0 -75.01 75.01 0 0 -75.01 75.01 0 0 -75.01 75.01 0 0 -75.01 75.04 0 0 -75.04 75.01 0 0 -75.01 75.01 0 0 -75.01 75.01 0 0 75.01 75.01 0 0 75.01 75.01 0 0 75.04 75.04 0 0 75.01 75.01 0 0 75.01 75.01 0 0 75.01 75.01 0 0 75.01 75.01 0 0 75.04 75.04 0 0 75.01 75.01 0 0 75.01 75.01 0 0 75.01 75.01 0 0 75.01 75.01 0 0 75.04 75.04 0 0 75.01 75.01 0 0 75.01 75.01 0 0 75.01 75.01 0 0 75.01 75.01 0 0 75.04 75.04 0 0 75.01 -12828.12 0 0 -12828.15 75.01 0 0 75.04 75.01 0 0 75.01 75.01 0 0 75.01 75.04 0 0 75.01 75.01 0 0 75.01 75.01 0 0 75.04 75.01 0 0 75.01 75.01 0 0 75.01 75.04 0 0 75.01 75.01 0 0 75.01 75.01 0 0 75.04 75.01 0 0 75.01 75.01 0 0 75.01 75.04 0 0 75.01 75.01 0 0 75.01 75.01 0 0 75.04 75.01 0 0 75.01 75.01 0 0 150.03 -75.01 0 0 75.01zm14178.46 -5326.29l-75.04 0 0 75.01 -75.01 0 0 75.04 -75.01 0 0 75.01 -75.01 0 0 75.01 -75.01 0 0 75.01 -75.04 0 0 75.01 -75.01 0 0 75.04 -75.01 0 0 75.01 -75.01 0 0 75.01 -75.01 0 0 75.01 -75.04 0 0 75.01 -75.01 0 0 75.04 -75.01 0 0 75.01 -75.01 0 0 75.01 -75.01 0 0 75.01 -75.04 0 0 75.01 -75.01 0 0 75.04 -75.01 0 0 75.01 -75.01 0 0 75.01 -75.01 0 0 75.01 -75.04 0 0 75.01 -75.01 0 0 75.04 -75.01 0 0 75.01 -75.01 0 0 75.01 -75.01 0 0 75.01 -75.04 0 0 75.01 -75.01 0 0 75.04 -75.01 0 0 75.01 -75.01 0 0 75.01 -75.01 0 0 75.01 -75.04 0 0 75.01 -75.01 0 0 75.04 -75.01 0 0 75.01 -75.01 0 0 75.01 -75.01 0 0 75.01 -75.04 0 0 75.01 -75.01 0 0 75.04 -75.01 0 0 75.01 -75.01 0 0 75.01 -75.01 0 0 75.01 -75.04 0 0 75.01 -75.01 0 0 75.04 -75.01 0 0 75.01 -75.01 0 0 75.01 -75.01 0 0 75.01 -75.04 0 0 75.01 -75.01 0 0 75.04 -75.01 0 0 75.01 -75.01 0 0 75.01 -75.01 0 0 75.01 -75.04 0 0 75.01 -75.01 0 0 75.04 -75.01 0 0 75.01 -75.01 0 0 75.01 -75.01 0 0 75.01 -75.01 0 0 75.01 -75.04 0 0 75.04 -75.01 0 0 75.01 -75.01 0 0 75.01 -75.01 0 0 75.01 -75.01 0 0 75.01 -75.04 0 0 75.04 -75.01 0 0 75.01 -75.01 0 0 75.01 -75.01 0 0 75.01 -75.01 0 0 75.01 -75.04 0 0 75.04 -75.01 0 0 75.01 -75.01 0 0 75.01 -75.01 0 0 75.01 -75.01 0 0 75.01 -75.04 0 0 75.04 -75.01 0 0 75.01 -75.01 0 0 75.01 -75.01 0 0 75.01 -75.01 0 0 75.01 -75.04 0 0 75.04 -75.01 0 0 75.01 -75.01 0 0 75.01 -75.01 0 0 75.01 -75.01 0 0 75.01 -75.04 0 0 75.04 -75.01 0 0 75.01 -75.01 0 0 75.01 -75.01 0 0 75.01 -75.01 0 0 75.01 -75.04 0 0 75.04 -75.01 0 0 75.01 -75.01 0 0 75.01 -75.01 0 0 75.01 -75.01 0 0 75.01 -75.04 0 0 75.04 -75.01 0 0 75.01 -75.01 0 0 75.01 -75.01 0 0 75.01 -75.01 0 0 75.01 -75.04 0 0 -75.01 -75.01 0 0 -75.01 -75.01 0 0 -75.01 -75.01 0 0 -75.01 -75.01 0 0 -75.04 75.01 0 0 -75.01 75.01 0 0 -75.01 75.01 0 0 -75.01 75.01 0 0 -75.01 75.04 0 0 -75.04 75.01 0 0 -75.01 75.01 0 0 -75.01 75.01 0 0 -75.01 75.01 0 0 -75.01 75.04 0 0 -75.04 75.01 0 0 -75.01 75.01 0 0 -75.01 75.01 0 0 -75.01 75.01 0 0 -75.01 75.04 0 0 -75.04 75.01 0 0 -75.01 75.01 0 0 -75.01 75.01 0 0 -75.01 75.01 0 0 -75.01 75.04 0 0 -75.04 75.01 0 0 -75.01 75.01 0 0 -75.01 75.01 0 0 -75.01 75.01 0 0 -75.01 75.04 0 0 -75.04 75.01 0 0 -75.01 75.01 0 0 -75.01 75.01 0 0 -75.01 75.01 0 0 -75.01 75.04 0 0 -75.04 75.01 0 0 -75.01 75.01 0 0 -75.01 75.01 0 0 -75.01 75.01 0 0 -75.01 75.04 0 0 -75.04 75.01 0 0 -75.01 75.01 0 0 -75.01 75.01 0 0 -75.01 75.01 0 0 -75.01 75.04 0 0 -75.04 75.01 0 0 -75.01 75.01 0 0 -75.01 75.01 0 0 -75.01 75.01 0 0 -75.01 75.04 0 0 -75.04 75.01 0 0 -75.01 75.01 0 0 -75.01 75.01 0 0 -75.01 75.01 0 0 -75.01 75.01 0 0 -75.04 75.04 0 0 -75.01 75.01 0 0 -75.01 75.01 0 0 -75.01 75.01 0 0 -75.01 75.01 0 0 -75.04 75.04 0 0 -75.01 75.01 0 0 -75.01 75.01 0 0 -75.01 75.01 0 0 -75.01 75.01 0 0 -75.04 75.04 0 0 -75.01 75.01 0 0 -75.01 75.01 0 0 -75.01 75.01 0 0 -75.01 75.01 0 0 -75.04 75.04 0 0 -75.01 75.01 0 0 -75.01 75.01 0 0 -75.01 75.01 0 0 -75.01 75.01 0 0 -75.04 75.04 0 0 -75.01 75.01 0 0 -75.01 75.01 0 0 -75.01 75.01 0 0 -75.01 75.01 0 0 -75.04 75.04 0 0 -75.01 75.01 0 0 -75.01 75.01 0 0 -75.01 75.01 0 0 -75.01 75.01 0 0 -75.04 75.04 0 0 -75.01 75.01 0 0 -75.01 75.01 0 0 -75.01 75.01 0 0 -75.01 75.01 0 0 -75.04 75.04 0 0 -75.01 75.01 0 0 -75.01 75.01 0 0 -75.01 75.01 0 0 -75.01 75.01 0 0 -75.04 75.04 0 0 -75.01 75.01 0 0 -75.01 75.01 0 0 -75.01 75.01 0 0 -75.01 75.01 0 0 -75.04 75.04 0 0 -75.01 75.01 0 0 -75.01 75.01 0 0 75.01 75.01 0 0 75.01 75.01 0 0 75.04 75.04 0 0 75.01 75.01 0 0 75.01 -75.01 0 0 75.01zm-750.18 -750.18l-75.04 0 0 75.01 -75.01 0 0 75.04 -75.01 0 0 75.01 -75.01 0 0 75.01 -75.01 0 0 75.01 -75.04 0 0 75.01 -75.01 0 0 75.04 -75.01 0 0 75.01 -75.01 0 0 75.01 -75.01 0 0 75.01 -75.04 0 0 75.01 -75.01 0 0 75.04 -75.01 0 0 75.01 -75.01 0 0 75.01 -75.01 0 0 75.01 -75.04 0 0 75.01 -75.01 0 0 75.04 -75.01 0 0 75.01 -75.01 0 0 75.01 -75.01 0 0 75.01 -75.04 0 0 75.01 -75.01 0 0 75.04 -75.01 0 0 75.01 -75.01 0 0 75.01 -75.01 0 0 75.01 -75.04 0 0 75.01 -75.01 0 0 75.04 -75.01 0 0 75.01 -75.01 0 0 75.01 -75.01 0 0 75.01 -75.04 0 0 75.01 -75.01 0 0 75.04 -75.01 0 0 75.01 -75.01 0 0 75.01 -75.01 0 0 75.01 -75.04 0 0 75.01 -75.01 0 0 75.04 -75.01 0 0 75.01 -75.01 0 0 75.01 -75.01 0 0 75.01 -75.04 0 0 75.01 -75.01 0 0 75.04 -75.01 0 0 75.01 -75.01 0 0 75.01 -75.01 0 0 75.01 -75.01 0 0 75.01 -75.04 0 0 75.04 -75.01 0 0 75.01 -75.01 0 0 75.01 -75.01 0 0 75.01 -75.01 0 0 75.01 -75.04 0 0 75.04 -75.01 0 0 75.01 -75.01 0 0 75.01 -75.01 0 0 75.01 -75.01 0 0 75.01 -75.04 0 0 75.04 -75.01 0 0 75.01 -75.01 0 0 75.01 -75.01 0 0 75.01 -75.01 0 0 75.01 -75.04 0 0 75.04 -75.01 0 0 75.01 -75.01 0 0 75.01 -75.01 0 0 75.01 -75.01 0 0 75.01 -75.04 0 0 75.04 -75.01 0 0 75.01 -75.01 0 0 75.01 -75.01 0 0 75.01 -75.01 0 0 75.01 -75.04 0 0 75.04 -75.01 0 0 75.01 -75.01 0 0 75.01 -75.01 0 0 75.01 -75.01 0 0 75.01 -75.04 0 0 75.04 -75.01 0 0 75.01 -75.01 0 0 75.01 -75.01 0 0 75.01 -75.01 0 0 75.01 -75.04 0 0 75.04 -75.01 0 0 75.01 -75.01 0 0 75.01 -75.01 0 0 75.01 -75.01 0 0 75.01 -75.04 0 0 75.04 -75.01 0 0 75.01 -75.01 0 0 75.01 -75.01 0 0 75.01 -75.01 0 0 75.01 -75.04 0 0 75.04 -75.01 0 0 75.01 -75.01 0 0 75.01 -75.01 0 0 75.01 -75.01 0 0 75.01 -75.04 0 0 -75.01 -75.01 0 0 -75.01 -75.01 0 0 -75.01 -75.01 0 0 -75.01 -75.01 0 0 -75.04 75.01 0 0 -75.01 75.01 0 0 -75.01 75.01 0 0 -75.01 75.01 0 0 -75.01 75.04 0 0 -75.04 75.01 0 0 -75.01 75.01 0 0 -75.01 75.01 0 0 -75.01 75.01 0 0 -75.01 75.04 0 0 -75.04 75.01 0 0 -75.01 75.01 0 0 -75.01 75.01 0 0 -75.01 75.01 0 0 -75.01 75.04 0 0 -75.04 75.01 0 0 -75.01 75.01 0 0 -75.01 75.01 0 0 -75.01 75.01 0 0 -75.01 75.04 0 0 -75.04 75.01 0 0 -75.01 75.01 0 0 -75.01 75.01 0 0 -75.01 75.01 0 0 -75.01 75.04 0 0 -75.04 75.01 0 0 -75.01 75.01 0 0 -75.01 75.01 0 0 -75.01 75.01 0 0 -75.01 75.04 0 0 -75.04 75.01 0 0 -75.01 75.01 0 0 -75.01 75.01 0 0 -75.01 75.01 0 0 -75.01 75.04 0 0 -75.04 75.01 0 0 -75.01 75.01 0 0 -75.01 75.01 0 0 -75.01 75.01 0 0 -75.01 75.04 0 0 -75.04 75.01 0 0 -75.01 75.01 0 0 -75.01 75.01 0 0 -75.01 75.01 0 0 -75.01 75.04 0 0 -75.04 75.01 0 0 -75.01 75.01 0 0 -75.01 75.01 0 0 -75.01 75.01 0 0 -75.01 75.04 0 0 -75.04 75.01 0 0 -75.01 75.01 0 0 -75.01 75.01 0 0 -75.01 75.01 0 0 -75.01 75.04 0 0 -75.04 75.01 0 0 -75.01 75.01 0 0 -75.01 75.01 0 0 -75.01 75.01 0 0 -75.01 75.01 0 0 -75.04 75.04 0 0 -75.01 75.01 0 0 -75.01 75.01 0 0 -75.01 75.01 0 0 -75.01 75.01 0 0 -75.04 75.04 0 0 -75.01 75.01 0 0 -75.01 75.01 0 0 -75.01 75.01 0 0 -75.01 75.01 0 0 -75.04 75.04 0 0 -75.01 75.01 0 0 -75.01 75.01 0 0 -75.01 75.01 0 0 -75.01 75.01 0 0 -75.04 75.04 0 0 -75.01 75.01 0 0 -75.01 75.01 0 0 -75.01 75.01 0 0 -75.01 75.01 0 0 -75.04 75.04 0 0 -75.01 75.01 0 0 -75.01 75.01 0 0 -75.01 75.01 0 0 -75.01 75.01 0 0 -75.04 75.04 0 0 -75.01 75.01 0 0 -75.01 75.01 0 0 -75.01 75.01 0 0 -75.01 75.01 0 0 -75.04 75.04 0 0 -75.01 75.01 0 0 -75.01 75.01 0 0 -75.01 75.01 0 0 -75.01 75.01 0 0 -75.04 75.04 0 0 -75.01 75.01 0 0 -75.01 75.01 0 0 75.01 75.01 0 0 75.01 75.01 0 0 75.04 75.04 0 0 75.01 75.01 0 0 75.01 -75.01 0 0 75.01zm150.02 -900.21l75.01 0 0 -75.01 75.01 0 0 -75.04 75.04 0 0 -75.01 75.01 0 0 -75.01 75.01 0 0 -75.01 75.01 0 0 -75.01 75.01 0 0 -75.04 75.04 0 0 -75.01 150.02 0 0 75.01 75.01 0 0 75.04 75.01 0 0 75.01 75.04 0 0 75.01 75.01 0 0 75.01 75.01 0 0 75.01 75.01 0 0 75.04 75.01 0 0 75.01 75.04 0 0 75.01 75.01 0 0 75.01 75.01 0 0 75.01 75.01 0 0 75.04 75.01 0 0 75.01 75.04 0 0 150.03 -75.04 0 0 75.01 -75.01 0 0 75.04 -75.01 0 0 75.01 -75.01 0 0 75.01 -75.01 0 0 75.01 -75.04 0 0 75.01 -75.01 0 0 75.04 -75.01 0 0 75.01 -75.01 0 0 -75.01 -75.01 0 0 -75.04 -75.04 0 0 -75.01 -75.01 0 0 -75.01 -75.01 0 0 -75.01 -75.01 0 0 -75.01 -75.01 0 0 -75.04 -75.04 0 0 -75.01 -75.01 0 0 -75.01 -75.01 0 0 -75.01 -75.01 0 0 -75.01 -75.01 0 0 -75.04 -75.04 0 0 -75.01 -75.01 0 0 -75.01 -75.01 0 0 -75.01zm-18229.42 -975.25l2775.66 0 0 22805.56 -2775.66 0 0 -525.12 600.13 0 0 -75.01 75.04 0 0 -75.04 75.01 0 0 -300.05 -75.01 0 0 -75.04 -75.04 0 0 -75.01 -600.13 0 0 -900.21 600.13 0 0 -75.01 75.04 0 0 -75.04 75.01 0 0 -300.05 -75.01 0 0 -75.04 -75.04 0 0 -75.01 -600.13 0 0 -900.21 600.13 0 0 -75.01 75.04 0 0 -75.04 75.01 0 0 -300.05 -75.01 0 0 -75.04 -75.04 0 0 -75.01 -600.13 0 0 -900.21 600.13 0 0 -75.01 75.04 0 0 -75.04 75.01 0 0 -300.05 -75.01 0 0 -75.04 -75.04 0 0 -75.01 -675.14 0 0 -975.22 750.18 0 0 -75.04 75.01 0 0 -375.09 -75.01 0 0 -75.01 -750.18 0 0 -975.22 750.18 0 0 -75.04 75.01 0 0 -375.09 -75.01 0 0 -75.01 -150.05 0 0 -75.01 -525.12 0 0 -900.21 600.13 0 0 -75.04 75.04 0 0 -75.01 75.01 0 0 -300.08 -75.01 0 0 -75.01 -75.04 0 0 -75.01 -600.13 0 0 -900.21 600.13 0 0 -75.04 75.04 0 0 -75.01 75.01 0 0 -300.08 -75.01 0 0 -75.01 -75.04 0 0 -75.01 -600.13 0 0 -900.24 600.13 0 0 -75.01 75.04 0 0 -75.01 75.01 0 0 -300.08 -75.01 0 0 -75.01 -75.04 0 0 -75.01 -600.13 0 0 -900.24 525.12 0 0 -75.01 150.05 0 0 -75.01 75.01 0 0 -375.09 -75.01 0 0 -75.01 -750.18 0 0 -975.25 750.18 0 0 -75.01 75.01 0 0 -375.09 -75.01 0 0 -75.01 -750.18 0 0 -975.25 675.14 0 0 -75.01 75.04 0 0 -75.01 75.01 0 0 -300.08 -75.01 0 0 -75.01 -75.04 0 0 -75.01 -600.13 0 0 -900.24 600.13 0 0 -75.01 75.04 0 0 -75.01 75.01 0 0 -300.08 -75.01 0 0 -75.01 -75.04 0 0 -75.01 -600.13 0 0 -900.24 600.13 0 0 -75.01 75.04 0 0 -75.01 75.01 0 0 -300.08 -75.01 0 0 -75.01 -75.04 0 0 -75.01 -600.13 0 0 -900.24 600.13 0 0 -75.01 75.04 0 0 -75.01 75.01 0 0 -300.08 -75.01 0 0 -75.01 -75.04 0 0 -75.01 -600.13 0 0 -525.15zm-450.1 -525.12l-75.01 0 0 75.01 -75.04 0 0 23705.77 75.04 0 0 75.04 75.01 0 0 75.01 3600.86 0 0 -75.01 150.05 0 0 -150.05 75.01 0 0 -3300.81 13503.26 0 0 75.04 75.04 0 0 75.01 75.01 0 0 75.01 75.01 0 0 75.01 75.01 0 0 75.01 75.01 0 0 75.04 75.04 0 0 75.01 75.01 0 0 75.01 75.01 0 0 75.01 75.01 0 0 75.01 75.01 0 0 75.04 75.04 0 0 75.01 300.05 0 0 -75.01 75.04 0 0 -75.04 75.01 0 0 -300.05 -75.01 0 0 -75.04 -75.04 0 0 -75.01 -75.01 0 0 -75.01 -75.01 0 0 -75.01 -75.01 0 0 -75.01 -75.01 0 0 -75.04 -75.04 0 0 -75.01 -75.01 0 0 -75.01 -75.01 0 0 -75.01 -75.01 0 0 -75.01 -75.01 0 0 -75.04 -75.04 0 0 -75.01 -75.01 0 0 -75.01 -75.01 0 0 -75.01 -75.01 0 0 -75.01 -75.01 0 0 -75.04 -75.04 0 0 -75.01 -75.01 0 0 -75.01 -75.01 0 0 -75.01 -75.01 0 0 -75.01 -75.01 0 0 -75.04 -75.04 0 0 -75.01 -75.01 0 0 -75.01 -75.01 0 0 -75.01 -75.01 0 0 -75.01 -75.01 0 0 -75.04 -75.04 0 0 -75.01 -75.01 0 0 -75.01 -75.01 0 0 -75.01 -75.01 0 0 -75.01 -75.01 0 0 -75.04 -75.04 0 0 -75.01 -75.01 0 0 -75.01 -75.01 0 0 -75.01 -75.01 0 0 -75.01 -75.01 0 0 -75.04 -75.04 0 0 -75.01 -75.01 0 0 -75.01 -75.01 0 0 -75.01 -75.01 0 0 -75.01 -75.01 0 0 -75.04 -75.04 0 0 -75.01 -75.01 0 0 -75.01 -75.01 0 0 -75.01 -75.01 0 0 -75.01 -75.01 0 0 -75.04 -75.01 0 0 -75.01 -75.04 0 0 -75.01 -75.01 0 0 -75.01 -75.01 0 0 -75.01 -75.01 0 0 -75.04 -75.01 0 0 -75.01 -75.04 0 0 -75.01 -75.01 0 0 -75.01 -75.01 0 0 -75.01 -75.01 0 0 -75.04 -75.01 0 0 -75.01 -75.04 0 0 -75.01 -75.01 0 0 -75.01 -75.01 0 0 -75.01 -75.01 0 0 -75.04 -75.01 0 0 -75.01 -75.04 0 0 -75.01 -75.01 0 0 -75.01 -75.01 0 0 -75.01 -75.01 0 0 -75.04 -75.01 0 0 -75.01 -75.04 0 0 -75.01 -75.01 0 0 -75.01 -75.01 0 0 -75.01 -75.01 0 0 -75.04 -75.01 0 0 -75.01 -75.04 0 0 -75.01 -75.01 0 0 -75.01 -75.01 0 0 -75.01 -75.01 0 0 -75.04 -75.01 0 0 -75.01 -75.04 0 0 -75.01 -75.01 0 0 -75.01 -75.01 0 0 -75.01 -75.01 0 0 -75.04 -75.01 0 0 -75.01 -75.04 0 0 -75.01 -75.01 0 0 -75.01 -75.01 0 0 -75.01 -75.01 0 0 -75.04 -75.01 0 0 -75.01 -75.04 0 0 -75.01 -75.01 0 0 -75.01 -75.01 0 0 -75.01 -75.01 0 0 -75.04 -75.01 0 0 -75.01 -75.04 0 0 -75.01 -75.01 0 0 -75.01 -75.01 0 0 -75.01 -75.01 0 0 -75.04 -75.01 0 0 -75.01 -75.04 0 0 -75.01 -75.01 0 0 -75.01 -75.01 0 0 -75.01 -75.01 0 0 -75.04 -75.01 0 0 -75.01 -75.04 0 0 -75.01 -75.01 0 0 -75.01 -75.01 0 0 -75.01 -75.01 0 0 -75.04 -75.01 0 0 -75.01 -75.04 0 0 -75.01 -75.01 0 0 -75.01 -75.01 0 0 -75.01 -75.01 0 0 -75.04 -75.01 0 0 -75.01 -75.04 0 0 -75.01 -75.01 0 0 -75.01 -75.01 0 0 -75.01 -75.01 0 0 -75.04 -75.01 0 0 -75.01 -75.04 0 0 -75.01 150.05 0 0 -75.01 150.03 0 0 -75.04 225.07 0 0 -75.01 150.03 0 0 -75.01 225.07 0 0 -75.01 150.02 0 0 -75.01 150.05 0 0 -75.04 225.04 0 0 -75.01 225.07 0 0 -75.01 150.03 0 0 -75.01 225.07 0 0 -75.01 150.02 0 0 -75.04 225.07 0 0 -75.01 75.01 0 0 -75.01 75.01 0 0 -75.01 75.01 0 0 -75.01 75.04 0 0 -75.04 75.01 0 0 -75.01 75.01 0 0 -75.01 75.01 0 0 -75.01 75.01 0 0 -75.01 75.04 0 0 -75.04 75.01 0 0 -75.01 75.01 0 0 -75.01 75.01 0 0 -75.01 75.01 0 0 -75.01 75.04 0 0 -75.04 75.01 0 0 -75.01 75.01 0 0 -75.01 75.01 0 0 -75.01 75.01 0 0 -75.01 75.04 0 0 -75.04 75.01 0 0 -75.01 75.01 0 0 -75.01 75.01 0 0 -75.01 75.01 0 0 -75.01 75.04 0 0 -75.04 75.01 0 0 -75.01 75.01 0 0 -75.01 75.01 0 0 -75.01 75.01 0 0 -75.01 75.04 0 0 -75.04 75.01 0 0 -75.01 75.01 0 0 -75.01 75.01 0 0 -75.01 75.01 0 0 -75.01 75.04 0 0 -75.04 75.01 0 0 -75.01 75.01 0 0 -75.01 75.01 0 0 -75.01 75.01 0 0 -75.01 75.04 0 0 -75.04 75.01 0 0 -75.01 75.01 0 0 -75.01 75.01 0 0 -75.01 75.01 0 0 -75.01 75.01 0 0 -75.04 75.04 0 0 -75.01 75.01 0 0 -75.01 75.01 0 0 -75.01 75.01 0 0 -75.01 75.01 0 0 -75.04 75.04 0 0 -75.01 75.01 0 0 -75.01 75.01 0 0 -75.01 75.01 0 0 -75.01 75.01 0 0 -75.04 75.04 0 0 -75.01 75.01 0 0 -75.01 75.01 0 0 -75.01 75.01 0 0 -75.01 75.01 0 0 -75.04 75.04 0 0 -75.01 75.01 0 0 -75.01 75.01 0 0 -75.01 75.01 0 0 -75.01 75.01 0 0 -75.04 75.04 0 0 -75.01 75.01 0 0 -75.01 75.01 0 0 -75.01 75.01 0 0 -75.01 75.01 0 0 -75.04 75.04 0 0 -75.01 75.01 0 0 -75.01 75.01 0 0 -75.01 75.01 0 0 -75.01 75.01 0 0 -75.04 75.04 0 0 -75.01 75.01 0 0 -75.01 75.01 0 0 -75.01 75.01 0 0 -75.01 75.01 0 0 -75.04 75.04 0 0 -75.01 75.01 0 0 -75.01 75.01 0 0 -75.01 75.01 0 0 -75.01 75.01 0 0 -75.04 75.04 0 0 -75.01 75.01 0 0 -75.01 75.01 0 0 -75.01 75.01 0 0 -75.01 75.01 0 0 -75.04 75.04 0 0 -75.01 75.01 0 0 -75.01 75.01 0 0 -75.01 75.01 0 0 -75.01 75.01 0 0 -75.04 75.04 0 0 -75.01 75.01 0 0 -75.01 75.01 0 0 -75.01 75.01 0 0 -75.01 75.01 0 0 -75.04 75.04 0 0 -75.01 75.01 0 0 -75.01 75.01 0 0 -75.01 75.01 0 0 -75.01 75.01 0 0 -75.04 75.04 0 0 -75.01 75.01 0 0 -75.01 75.01 0 0 -75.01 75.01 0 0 -75.01 75.01 0 0 -75.04 75.04 0 0 -75.01 75.01 0 0 -75.01 75.01 0 0 -75.01 75.01 0 0 -75.01 75.01 0 0 -75.04 75.04 0 0 -75.01 75.01 0 0 -75.01 75.01 0 0 -75.01 75.01 0 0 -75.01 75.01 0 0 -75.04 75.04 0 0 -300.05 -75.04 0 0 -150.05 -150.03 0 0 -150.02 -150.02 0 0 -150.05 -75.04 0 0 -75.01 -150.03 0 0 -150.02 -150.02 0 0 -150.05 -75.04 0 0 -75.01 -150.02 0 0 -150.03 -150.03 0 0 -150.05 -75.04 0 0 -75.01 -150.02 0 0 -150.02 -150.02 0 0 -150.05 -150.05 0 0 -75.01 -300.08 0 0 75.01 -150.02 0 0 150.05 -150.03 0 0 75.01 -75.04 0 0 150.02 -150.02 0 0 150.05 -150.02 0 0 75.01 -75.04 0 0 150.02 -150.03 0 0 150.05 -150.02 0 0 75.01 -75.04 0 0 150.03 -150.02 0 0 150.05 -150.03 0 0 75.01 -75.04 0 0 150.02 -150.02 0 0 150.05 -150.03 0 0 75.01 -75.04 0 0 150.02 -150.03 0 0 150.05 -150.02 0 0 75.01 -75.04 0 0 150.03 -150.03 0 0 150.05 -150.02 0 0 75.01 -75.04 0 0 150.02 -150.02 0 0 150.05 -150.03 0 0 75.01 -75.04 0 0 150.02 -150.02 0 0 150.05 -150.02 0 0 75.01 -75.04 0 0 150.03 -150.03 0 0 150.05 -150.02 0 0 75.01 -75.04 0 0 150.03 -150.02 0 0 150.05 -150.03 0 0 75.01 -75.01 0 0 150.02 -150.05 0 0 150.05 -150.02 0 0 75.01 -75.01 0 0 150.02 -150.05 0 0 150.05 -150.02 0 0 75.01 -75.01 0 0 150.03 -150.05 0 0 150.05 -150.03 0 0 75.01 -75.01 0 0 150.02 -150.05 0 0 150.05 -150.03 0 0 75.01 -75.01 0 0 150.02 -150.05 0 0 150.05 -150.02 0 0 75.01 -75.01 0 0 150.03 -150.05 0 0 150.05 -150.02 0 0 75.01 -75.01 0 0 150.02 -150.05 0 0 150.05 -150.03 0 0 75.01 -75.01 0 0 150.02 -150.05 0 0 150.05 -150.02 0 0 75.01 -75.01 0 0 150.03 -150.05 0 0 150.05 -150.02 0 0 75.01 -75.01 0 0 150.03 -150.05 0 0 150.05 -150.03 0 0 75.01 -75.01 0 0 150.02 -150.05 0 0 150.05 -150.02 0 0 75.01 -75.01 0 0 150.02 -150.05 0 0 150.05 -150.02 0 0 75.01 -75.01 0 0 150.03 -150.05 0 0 150.05 -75.01 0 0 75.01 -75.01 0 0 75.01 -75.01 0 0 225.07 -75.04 0 0 150.03 -75.01 0 0 225.07 -75.01 0 0 225.04 -75.01 0 0 75.04 -75.01 0 0 225.04 -75.04 0 0 150.05 -75.01 0 0 225.04 -75.01 0 0 225.07 -75.01 0 0 150.03 -75.01 0 0 225.07 -75.04 0 0 150.02 -75.01 0 0 150.05 -75.01 0 0 -75.04 -75.01 0 0 -75.01 -75.01 0 0 -75.01 -75.04 0 0 -75.01 -75.01 0 0 -75.01 -75.01 0 0 -75.04 -75.01 0 0 -75.01 -75.01 0 0 -75.01 -75.04 0 0 -75.01 -75.01 0 0 -75.01 -75.01 0 0 -75.04 -75.01 0 0 -75.01 -75.01 0 0 -75.01 -75.04 0 0 -75.01 -75.01 0 0 -75.01 -75.01 0 0 -75.04 -75.01 0 0 -75.01 -75.01 0 0 -75.01 -75.04 0 0 -75.01 -75.01 0 0 -75.01 -75.01 0 0 -75.04 -75.01 0 0 -75.01 -75.01 0 0 -75.01 -75.01 0 0 -75.01 -75.04 0 0 -75.01 -75.01 0 0 -75.04 -75.01 0 0 -75.01 -75.01 0 0 -75.01 -75.01 0 0 -75.01 -75.04 0 0 -75.01 -75.01 0 0 -75.04 -75.01 0 0 -75.01 -75.01 0 0 -75.01 -75.01 0 0 -75.01 -75.04 0 0 -75.01 -75.01 0 0 -75.04 -75.01 0 0 -75.01 -75.01 0 0 -75.01 -75.01 0 0 -75.01 -75.04 0 0 -75.01 -75.01 0 0 -75.04 -75.01 0 0 -75.01 -75.01 0 0 -75.01 -75.01 0 0 -75.01 -75.04 0 0 -75.01 -75.01 0 0 -75.04 -75.01 0 0 -75.01 -75.01 0 0 -75.01 -75.01 0 0 -75.01 -75.04 0 0 -75.01 -75.01 0 0 -75.04 -75.01 0 0 -75.01 75.01 0 0 -75.01 75.01 0 0 -75.01 75.04 0 0 -75.01 75.01 0 0 -75.04 75.01 0 0 -75.01 75.01 0 0 -75.01 75.01 0 0 -75.01 75.04 0 0 -75.01 75.01 0 0 -150.05 75.01 0 0 -300.08 -75.01 0 0 -75.01 -375.09 0 0 75.01 -150.05 0 0 75.04 -75.01 0 0 75.01 -75.01 0 0 75.01 -75.01 0 0 75.01 -75.01 0 0 75.01 -75.04 0 0 75.04 -75.01 0 0 75.01 -75.01 0 0 75.01 -150.02 0 0 -75.01 -75.04 0 0 -75.01 -75.01 0 0 -75.04 -75.01 0 0 -75.01 -75.01 0 0 -75.01 -75.01 0 0 -75.01 -75.04 0 0 -75.01 -75.01 0 0 -75.04 -75.01 0 0 -75.01 -75.01 0 0 -75.01 -75.01 0 0 -75.01 -75.04 0 0 -75.01 -75.01 0 0 -75.04 -75.01 0 0 -75.01 -75.01 0 0 -6001.46 -75.01 0 0 -150.02 -150.05 0 0 -75.01 -3600.86 0 0 75.01z"/>
   <path class="fil0" d="M6451.57 13203.21l150.05 0 0 75.01 75.01 0 0 75.01 75.01 0 0 75.04 75.01 0 0 75.01 75.04 0 0 75.01 75.01 0 0 75.01 75.01 0 0 75.01 75.01 0 0 75.04 75.01 0 0 75.01 75.04 0 0 75.01 75.01 0 0 75.01 75.01 0 0 75.01 75.01 0 0 75.04 75.01 0 0 75.01 75.04 0 0 75.01 75.01 0 0 75.01 75.01 0 0 75.01 75.01 0 0 75.04 75.01 0 0 75.01 75.01 0 0 75.01 75.04 0 0 75.01 75.01 0 0 75.01 75.01 0 0 75.04 75.01 0 0 75.01 75.01 0 0 75.01 75.04 0 0 75.01 75.01 0 0 75.01 75.01 0 0 75.04 75.01 0 0 75.01 75.01 0 0 75.01 75.04 0 0 75.01 75.01 0 0 75.01 75.01 0 0 75.04 75.01 0 0 75.01 75.01 0 0 75.01 75.04 0 0 75.01 75.01 0 0 75.01 75.01 0 0 75.04 75.01 0 0 75.01 75.01 0 0 75.01 75.04 0 0 75.01 75.01 0 0 75.01 75.01 0 0 75.04 75.01 0 0 75.01 75.01 0 0 75.01 75.04 0 0 75.01 75.01 0 0 75.01 75.01 0 0 75.04 75.01 0 0 75.01 75.01 0 0 75.01 75.04 0 0 75.01 75.01 0 0 75.01 75.01 0 0 75.04 75.01 0 0 75.01 75.01 0 0 75.01 -4201.02 0 0 -4126zm-450.1 -975.25l-75.01 0 0 5626.37 75.01 0 0 75.04 5551.36 0 0 -75.04 75.01 0 0 -75.01 75.01 0 0 -300.08 -75.01 0 0 -75.01 -75.01 0 0 -75.01 -75.01 0 0 -75.01 -75.04 0 0 -75.01 -75.01 0 0 -75.04 -75.01 0 0 -75.01 -75.01 0 0 -75.01 -75.01 0 0 -75.01 -75.04 0 0 -75.01 -75.01 0 0 -75.04 -75.01 0 0 -75.01 -75.01 0 0 -75.01 -75.01 0 0 -75.01 -75.04 0 0 -75.01 -75.01 0 0 -75.04 -75.01 0 0 -75.01 -75.01 0 0 -75.01 -75.01 0 0 -75.01 -75.04 0 0 -75.01 -75.01 0 0 -75.04 -75.01 0 0 -75.01 -75.01 0 0 -75.01 -75.01 0 0 -75.01 -75.04 0 0 -75.01 -75.01 0 0 -75.04 -75.01 0 0 -75.01 -75.01 0 0 -75.01 -75.01 0 0 -75.01 -75.04 0 0 -75.01 -75.01 0 0 -75.04 -75.01 0 0 -75.01 -75.01 0 0 -75.01 -75.01 0 0 -75.01 -75.04 0 0 -75.01 -75.01 0 0 -75.04 -75.01 0 0 -75.01 -75.01 0 0 -75.01 -75.01 0 0 -75.01 -75.04 0 0 -75.01 -75.01 0 0 -75.04 -75.01 0 0 -75.01 -75.01 0 0 -75.01 -75.01 0 0 -75.01 -75.04 0 0 -75.01 -75.01 0 0 -75.04 -75.01 0 0 -75.01 -75.01 0 0 -75.01 -75.01 0 0 -75.01 -75.04 0 0 -75.01 -75.01 0 0 -75.04 -75.01 0 0 -75.01 -75.01 0 0 -75.01 -75.01 0 0 -75.01 -75.01 0 0 -75.01 -75.04 0 0 -75.04 -75.01 0 0 -75.01 -75.01 0 0 -75.01 -75.01 0 0 -75.01 -75.01 0 0 -75.01 -75.04 0 0 -75.04 -75.01 0 0 -75.01 -75.01 0 0 -75.01 -75.01 0 0 -75.01 -75.01 0 0 -75.01 -75.04 0 0 -75.04 -75.01 0 0 -75.01 -75.01 0 0 -75.01 -75.01 0 0 -75.01 -75.01 0 0 -75.01 -75.04 0 0 -75.04 -75.01 0 0 -75.01 -375.09 0 0 75.01z"/>
   <polygon class="fil0" points="10727.62,1800.42 10577.57,1800.42 10577.57,1875.46 10502.56,1875.46 10502.56,1950.47 10427.55,1950.47 10427.55,2025.48 10352.53,2025.48 10352.53,2100.49 10277.49,2100.49 10277.49,2175.51 10202.48,2175.51 10202.48,2250.55 10127.47,2250.55 10127.47,2325.56 10052.45,2325.56 10052.45,2400.57 9977.44,2400.57 9977.44,2475.59 9902.4,2475.59 9902.4,2550.6 9827.39,2550.6 9827.39,2700.65 9677.36,2700.65 9677.36,3000.73 9752.38,3000.73 9752.38,3075.74 9827.39,3075.74 9827.39,3150.76 10127.47,3150.76 10127.47,3075.74 10277.49,3075.74 10277.49,3000.73 10352.53,3000.73 10352.53,2925.69 10427.55,2925.69 10427.55,2850.68 10502.56,2850.68 10502.56,2775.66 10577.57,2775.66 10577.57,2700.65 10652.58,2700.65 10652.58,2625.64 10727.62,2625.64 10727.62,2550.6 10802.64,2550.6 10802.64,2475.59 10877.65,2475.59 10877.65,2400.57 10952.66,2400.57 10952.66,2325.56 11027.67,2325.56 11027.67,2250.55 11102.72,2250.55 11102.72,2100.49 11177.73,2100.49 11177.73,1800.42 11102.72,1800.42 11102.72,1725.4 10727.62,1725.4 "/>
   <polygon class="fil0" points="7501.83,5026.21 7351.8,5026.21 7351.8,5101.22 7276.79,5101.22 7276.79,5176.24 7201.75,5176.24 7201.75,5251.28 7126.74,5251.28 7126.74,5326.29 7051.72,5326.29 7051.72,5401.3 6976.71,5401.3 6976.71,5476.32 6901.7,5476.32 6901.7,5551.33 6826.66,5551.33 6826.66,5626.37 6751.64,5626.37 6751.64,5701.38 6676.63,5701.38 6676.63,5776.4 6601.62,5776.4 6601.62,5851.41 6526.61,5851.41 6526.61,6001.46 6451.57,6001.46 6451.57,6301.51 6526.61,6301.51 6526.61,6376.55 6901.7,6376.55 6901.7,6301.51 7051.72,6301.51 7051.72,6226.5 7126.74,6226.5 7126.74,6151.49 7201.75,6151.49 7201.75,6076.47 7276.79,6076.47 7276.79,6001.46 7351.8,6001.46 7351.8,5926.42 7426.82,5926.42 7426.82,5851.41 7501.83,5851.41 7501.83,5776.4 7576.84,5776.4 7576.84,5701.38 7651.88,5701.38 7651.88,5626.37 7726.89,5626.37 7726.89,5551.33 7801.91,5551.33 7801.91,5401.3 7876.92,5401.3 7876.92,5326.29 7951.93,5326.29 7951.93,5101.22 7876.92,5101.22 7876.92,5026.21 7801.91,5026.21 7801.91,4951.2 7501.83,4951.2 "/>
   <polygon class="fil0" points="9152.22,3375.82 9002.19,3375.82 9002.19,3450.83 8927.18,3450.83 8927.18,3525.85 8852.17,3525.85 8852.17,3600.86 8777.13,3600.86 8777.13,3675.87 8702.11,3675.87 8702.11,3750.91 8627.1,3750.91 8627.1,3825.93 8552.09,3825.93 8552.09,3900.94 8477.08,3900.94 8477.08,3975.95 8402.03,3975.95 8402.03,4050.96 8327.02,4050.96 8327.02,4126 8252.01,4126 8252.01,4201.02 8177,4201.02 8177,4351.04 8101.99,4351.04 8101.99,4651.12 8177,4651.12 8177,4726.13 8252.01,4726.13 8252.01,4801.15 8477.08,4801.15 8477.08,4726.13 8627.1,4726.13 8627.1,4651.12 8702.11,4651.12 8702.11,4576.11 8777.13,4576.11 8777.13,4501.1 8852.17,4501.1 8852.17,4426.05 8927.18,4426.05 8927.18,4351.04 9002.19,4351.04 9002.19,4276.03 9077.21,4276.03 9077.21,4201.02 9152.22,4201.02 9152.22,4126 9227.26,4126 9227.26,4050.96 9302.27,4050.96 9302.27,3975.95 9377.28,3975.95 9377.28,3900.94 9452.3,3900.94 9452.3,3750.91 9527.31,3750.91 9527.31,3375.82 9377.28,3375.82 9377.28,3300.78 9152.22,3300.78 "/>
   <polygon class="fil0" points="19054.65,21605.25 18979.61,21605.25 18979.61,21680.29 18904.59,21680.29 18904.59,21980.34 18979.61,21980.34 18979.61,22055.38 19054.65,22055.38 19054.65,22130.39 19129.66,22130.39 19129.66,22205.4 19204.67,22205.4 19204.67,22280.42 19279.69,22280.42 19279.69,22355.43 19354.7,22355.43 19354.7,22430.47 19429.74,22430.47 19429.74,22505.48 19504.75,22505.48 19504.75,22580.5 19579.76,22580.5 19579.76,22655.51 19654.78,22655.51 19654.78,22730.52 19729.79,22730.52 19729.79,22805.56 19804.83,22805.56 19804.83,22880.57 19879.84,22880.57 19879.84,22955.59 19954.86,22955.59 19954.86,23030.6 20254.93,23030.6 20254.93,22955.59 20329.95,22955.59 20329.95,22880.57 20404.96,22880.57 20404.96,22580.5 20329.95,22580.5 20329.95,22505.48 20254.93,22505.48 20254.93,22430.47 20179.92,22430.47 20179.92,22355.43 20104.88,22355.43 20104.88,22280.42 20029.87,22280.42 20029.87,22205.4 19954.86,22205.4 19954.86,22130.39 19879.84,22130.39 19879.84,22055.38 19804.83,22055.38 19804.83,21980.34 19729.79,21980.34 19729.79,21905.33 19654.78,21905.33 19654.78,21830.31 19579.76,21830.31 19579.76,21755.3 19504.75,21755.3 19504.75,21680.29 19429.74,21680.29 19429.74,21605.25 19354.7,21605.25 19354.7,21530.23 19054.65,21530.23 "/>
   <polygon class="fil0" points="11552.82,975.22 11402.77,975.22 11402.77,1125.27 11327.75,1125.27 11327.75,1425.32 11402.77,1425.32 11402.77,1500.37 11777.86,1500.37 11777.86,1425.32 11852.9,1425.32 11852.9,1350.31 11927.91,1350.31 11927.91,1050.23 11852.9,1050.23 11852.9,975.22 11777.86,975.22 11777.86,900.21 11552.82,900.21 "/>
   <polygon class="fil0" points="20630.03,23255.66 20555.01,23255.66 20555.01,23630.76 20630.03,23630.76 20630.03,23705.77 20705.04,23705.77 20705.04,23780.78 20930.1,23780.78 20930.1,23705.77 21080.13,23705.77 21080.13,23255.66 21005.12,23255.66 21005.12,23180.65 20630.03,23180.65 "/>
   <polygon class="fil0" points="1200.29,7201.75 1200.29,7126.74 600.16,7126.74 600.16,6226.5 525.15,6226.5 525.15,7201.75 "/>
   <polygon class="fil0" points="600.16,17779.32 600.16,16879.11 1200.29,16879.11 1200.29,16804.1 525.15,16804.1 525.15,17779.32 "/>
   <polygon class="fil0" points="600.16,8702.11 600.16,7801.88 1125.27,7801.88 1125.27,7726.86 525.15,7726.86 525.15,8702.11 "/>
   <polygon class="fil0" points="1125.27,16278.95 1125.27,16203.94 600.16,16203.94 600.16,15303.73 525.15,15303.73 525.15,16278.95 "/>
   <polygon class="fil0" points="10352.53,11252.74 10277.49,11252.74 10277.49,11177.7 10202.48,11177.7 10202.48,11327.75 10352.53,11327.75 "/>
  </g>
 </g>
</svg>
